<mxfile host="app.diagrams.net" modified="2023-02-01T13:52:50.523Z" agent="5.0 (Windows NT 10.0; Win64; x64) AppleWebKit/537.36 (KHTML, like Gecko) Chrome/109.0.0.0 Safari/537.36 Edg/109.0.1518.70" etag="3IQydoIuR-OI39OLU0fv" version="20.8.14" type="github">
  <diagram id="GUWWXrYv7TFzIVzRqDlY" name="Page-1">
    <mxGraphModel dx="150" dy="1075" grid="1" gridSize="10" guides="1" tooltips="1" connect="1" arrows="1" fold="1" page="1" pageScale="1" pageWidth="827" pageHeight="1169" math="0" shadow="0">
      <root>
        <mxCell id="0" />
        <mxCell id="1" parent="0" />
        <mxCell id="mpOMUe2CQrQYa7WsvBK0-504" style="edgeStyle=orthogonalEdgeStyle;rounded=0;orthogonalLoop=1;jettySize=auto;html=1;fontSize=12;endArrow=classic;endFill=1;" parent="1" source="A_WAUtJpo3-AmnUpiRZP-756" target="A_WAUtJpo3-AmnUpiRZP-764" edge="1">
          <mxGeometry relative="1" as="geometry">
            <Array as="points">
              <mxPoint x="2755" y="971.5" />
              <mxPoint x="4155" y="971.5" />
            </Array>
          </mxGeometry>
        </mxCell>
        <mxCell id="A_WAUtJpo3-AmnUpiRZP-756" value="Ganges med antallet af årssøer på CHR nummeret" style="rounded=0;whiteSpace=wrap;shadow=0;glass=0;sketch=0;strokeColor=#000000;fontSize=12;fillColor=#FFFFFF;" parent="1" vertex="1">
          <mxGeometry x="2672.75" y="773.87" width="164.5" height="65.25" as="geometry" />
        </mxCell>
        <mxCell id="A_WAUtJpo3-AmnUpiRZP-764" value="Samlet bedriftsaftryk for grise m/u LUC&lt;br style=&quot;font-size: 30px;&quot;&gt;på CVR nummeret" style="ellipse;whiteSpace=wrap;html=1;fontSize=30;fillColor=#fff2cc;strokeColor=#d6b656;" parent="1" vertex="1">
          <mxGeometry x="3845" y="1041.5" width="620" height="210" as="geometry" />
        </mxCell>
        <mxCell id="mpOMUe2CQrQYa7WsvBK0-1" value="CHR 111111" style="rounded=1;whiteSpace=wrap;html=1;shadow=0;glass=0;sketch=0;strokeColor=#808080;fontSize=62;fillColor=default;gradientColor=none;rotation=0;opacity=90;" parent="1" vertex="1">
          <mxGeometry x="2640" y="180" width="980" height="77.5" as="geometry" />
        </mxCell>
        <mxCell id="mpOMUe2CQrQYa7WsvBK0-135" value="CVR 12345678" style="rounded=1;whiteSpace=wrap;html=1;shadow=0;glass=0;sketch=0;strokeColor=#808080;fontSize=62;fillColor=default;gradientColor=none;rotation=0;opacity=90;" parent="1" vertex="1">
          <mxGeometry x="2640" y="60" width="3030" height="77.5" as="geometry" />
        </mxCell>
        <mxCell id="mpOMUe2CQrQYa7WsvBK0-138" value="Årssoen" style="rounded=1;whiteSpace=wrap;html=1;fillColor=#dae8fc;fontSize=25;strokeColor=#6c8ebf;" parent="1" vertex="1">
          <mxGeometry x="2640" y="268.75" width="230" height="60" as="geometry" />
        </mxCell>
        <mxCell id="mpOMUe2CQrQYa7WsvBK0-407" style="edgeStyle=orthogonalEdgeStyle;rounded=0;orthogonalLoop=1;jettySize=auto;html=1;fontSize=12;endArrow=classic;endFill=1;fillColor=#dae8fc;strokeColor=#6c8ebf;" parent="1" source="mpOMUe2CQrQYa7WsvBK0-353" target="mpOMUe2CQrQYa7WsvBK0-405" edge="1">
          <mxGeometry relative="1" as="geometry" />
        </mxCell>
        <mxCell id="mpOMUe2CQrQYa7WsvBK0-353" value="Importeret korn til årssoen på CHR nummeret" style="ellipse;whiteSpace=wrap;html=1;aspect=fixed;shadow=0;fontFamily=Helvetica;fontSize=12;align=center;strokeColor=#6c8ebf;fillColor=#dae8fc;sketch=0;" parent="1" vertex="1">
          <mxGeometry x="2640" y="457" width="110" height="110" as="geometry" />
        </mxCell>
        <mxCell id="mpOMUe2CQrQYa7WsvBK0-406" style="edgeStyle=orthogonalEdgeStyle;rounded=0;orthogonalLoop=1;jettySize=auto;html=1;fontSize=12;endArrow=classic;endFill=1;fillColor=#dae8fc;strokeColor=#6c8ebf;" parent="1" source="mpOMUe2CQrQYa7WsvBK0-357" target="mpOMUe2CQrQYa7WsvBK0-405" edge="1">
          <mxGeometry relative="1" as="geometry" />
        </mxCell>
        <mxCell id="mpOMUe2CQrQYa7WsvBK0-357" value="Egenproduceret korn til årssoen&lt;br&gt;&amp;nbsp;på CHR nummeret" style="ellipse;whiteSpace=wrap;html=1;aspect=fixed;shadow=0;fontFamily=Helvetica;fontSize=12;align=center;strokeColor=#6c8ebf;fillColor=#dae8fc;sketch=0;" parent="1" vertex="1">
          <mxGeometry x="2760" y="457" width="110" height="110" as="geometry" />
        </mxCell>
        <mxCell id="mpOMUe2CQrQYa7WsvBK0-408" style="edgeStyle=orthogonalEdgeStyle;rounded=0;orthogonalLoop=1;jettySize=auto;html=1;fontSize=12;endArrow=none;endFill=0;fillColor=#dae8fc;strokeColor=#6c8ebf;" parent="1" source="mpOMUe2CQrQYa7WsvBK0-405" target="A_WAUtJpo3-AmnUpiRZP-756" edge="1">
          <mxGeometry relative="1" as="geometry" />
        </mxCell>
        <mxCell id="mpOMUe2CQrQYa7WsvBK0-405" value="Vægtet gennemsnit: årssoens aftryk m/u LUC" style="ellipse;whiteSpace=wrap;html=1;aspect=fixed;shadow=0;fontFamily=Helvetica;fontSize=12;align=center;strokeColor=#6c8ebf;fillColor=#dae8fc;sketch=0;" parent="1" vertex="1">
          <mxGeometry x="2690" y="611.5" width="130" height="130" as="geometry" />
        </mxCell>
        <mxCell id="mpOMUe2CQrQYa7WsvBK0-503" style="edgeStyle=orthogonalEdgeStyle;rounded=0;orthogonalLoop=1;jettySize=auto;html=1;fontSize=12;endArrow=classic;endFill=1;" parent="1" source="mpOMUe2CQrQYa7WsvBK0-412" target="A_WAUtJpo3-AmnUpiRZP-764" edge="1">
          <mxGeometry relative="1" as="geometry">
            <Array as="points">
              <mxPoint x="3005" y="971.5" />
              <mxPoint x="4155" y="971.5" />
            </Array>
          </mxGeometry>
        </mxCell>
        <mxCell id="mpOMUe2CQrQYa7WsvBK0-412" value="Ganges med antallet af smågrise på CHR nummeret" style="rounded=0;whiteSpace=wrap;shadow=0;glass=0;sketch=0;strokeColor=#000000;fontSize=12;fillColor=#FFFFFF;" parent="1" vertex="1">
          <mxGeometry x="2922.75" y="773.87" width="164.5" height="65.25" as="geometry" />
        </mxCell>
        <mxCell id="mpOMUe2CQrQYa7WsvBK0-413" value="Smågrisen" style="rounded=1;whiteSpace=wrap;html=1;fillColor=#e1d5e7;fontSize=25;strokeColor=#9673a6;" parent="1" vertex="1">
          <mxGeometry x="2890" y="268.75" width="230" height="60" as="geometry" />
        </mxCell>
        <mxCell id="mpOMUe2CQrQYa7WsvBK0-414" style="edgeStyle=orthogonalEdgeStyle;rounded=0;orthogonalLoop=1;jettySize=auto;html=1;fontSize=12;endArrow=classic;endFill=1;fillColor=#e1d5e7;strokeColor=#9673a6;" parent="1" source="mpOMUe2CQrQYa7WsvBK0-415" target="mpOMUe2CQrQYa7WsvBK0-419" edge="1">
          <mxGeometry relative="1" as="geometry" />
        </mxCell>
        <mxCell id="mpOMUe2CQrQYa7WsvBK0-415" value="Vægtet gennemsnit: smågrisens CO2e aftryk m/u LUC&lt;br&gt;&amp;nbsp;på CHR nummeret" style="ellipse;whiteSpace=wrap;html=1;aspect=fixed;shadow=0;fontFamily=Helvetica;fontSize=12;align=center;strokeColor=#9673a6;fillColor=#e1d5e7;sketch=0;" parent="1" vertex="1">
          <mxGeometry x="2890" y="457" width="110" height="110" as="geometry" />
        </mxCell>
        <mxCell id="mpOMUe2CQrQYa7WsvBK0-416" style="edgeStyle=orthogonalEdgeStyle;rounded=0;orthogonalLoop=1;jettySize=auto;html=1;fontSize=12;endArrow=classic;endFill=1;fillColor=#e1d5e7;strokeColor=#9673a6;" parent="1" source="mpOMUe2CQrQYa7WsvBK0-417" target="mpOMUe2CQrQYa7WsvBK0-419" edge="1">
          <mxGeometry relative="1" as="geometry" />
        </mxCell>
        <mxCell id="mpOMUe2CQrQYa7WsvBK0-417" value="Egenproduceret korn til smågrisen&lt;br&gt;&amp;nbsp;på CHR nummeret" style="ellipse;whiteSpace=wrap;html=1;aspect=fixed;shadow=0;fontFamily=Helvetica;fontSize=12;align=center;strokeColor=#9673a6;fillColor=#e1d5e7;sketch=0;" parent="1" vertex="1">
          <mxGeometry x="3010" y="457" width="110" height="110" as="geometry" />
        </mxCell>
        <mxCell id="mpOMUe2CQrQYa7WsvBK0-418" style="edgeStyle=orthogonalEdgeStyle;rounded=0;orthogonalLoop=1;jettySize=auto;html=1;fontSize=12;endArrow=none;endFill=0;fillColor=#e1d5e7;strokeColor=#9673a6;" parent="1" source="mpOMUe2CQrQYa7WsvBK0-419" target="mpOMUe2CQrQYa7WsvBK0-412" edge="1">
          <mxGeometry relative="1" as="geometry" />
        </mxCell>
        <mxCell id="mpOMUe2CQrQYa7WsvBK0-419" value="Vægtet gennemsnit: smågrisens aftryk m/u LUC uden egenproduceret korn" style="ellipse;whiteSpace=wrap;html=1;aspect=fixed;shadow=0;fontFamily=Helvetica;fontSize=12;align=center;strokeColor=#9673a6;fillColor=#e1d5e7;sketch=0;" parent="1" vertex="1">
          <mxGeometry x="2940" y="611.5" width="130" height="130" as="geometry" />
        </mxCell>
        <mxCell id="mpOMUe2CQrQYa7WsvBK0-505" style="edgeStyle=orthogonalEdgeStyle;rounded=0;orthogonalLoop=1;jettySize=auto;html=1;fontSize=12;endArrow=classic;endFill=1;" parent="1" source="mpOMUe2CQrQYa7WsvBK0-420" target="A_WAUtJpo3-AmnUpiRZP-764" edge="1">
          <mxGeometry relative="1" as="geometry">
            <Array as="points">
              <mxPoint x="3255" y="971.5" />
              <mxPoint x="4155" y="971.5" />
            </Array>
          </mxGeometry>
        </mxCell>
        <mxCell id="mpOMUe2CQrQYa7WsvBK0-420" value="Ganges med antallet af slagtegrise på CHR nummeret" style="rounded=0;whiteSpace=wrap;shadow=0;glass=0;sketch=0;strokeColor=#000000;fontSize=12;fillColor=#FFFFFF;" parent="1" vertex="1">
          <mxGeometry x="3172.75" y="773.87" width="164.5" height="65.25" as="geometry" />
        </mxCell>
        <mxCell id="mpOMUe2CQrQYa7WsvBK0-421" value="Slagtegrisen" style="rounded=1;whiteSpace=wrap;html=1;fillColor=#d5e8d4;fontSize=25;strokeColor=#82b366;" parent="1" vertex="1">
          <mxGeometry x="3140" y="268.75" width="230" height="60" as="geometry" />
        </mxCell>
        <mxCell id="mpOMUe2CQrQYa7WsvBK0-422" style="edgeStyle=orthogonalEdgeStyle;rounded=0;orthogonalLoop=1;jettySize=auto;html=1;fontSize=12;endArrow=classic;endFill=1;fillColor=#d5e8d4;strokeColor=#82b366;" parent="1" source="mpOMUe2CQrQYa7WsvBK0-423" target="mpOMUe2CQrQYa7WsvBK0-427" edge="1">
          <mxGeometry relative="1" as="geometry" />
        </mxCell>
        <mxCell id="mpOMUe2CQrQYa7WsvBK0-423" value="Vægtet gennemsnit: slagtegrisens CO2e aftryk m/u LUC&lt;br&gt;&amp;nbsp;på CHR nummeret" style="ellipse;whiteSpace=wrap;html=1;aspect=fixed;shadow=0;fontFamily=Helvetica;fontSize=12;align=center;strokeColor=#82b366;fillColor=#d5e8d4;sketch=0;" parent="1" vertex="1">
          <mxGeometry x="3140" y="457" width="110" height="110" as="geometry" />
        </mxCell>
        <mxCell id="mpOMUe2CQrQYa7WsvBK0-424" style="edgeStyle=orthogonalEdgeStyle;rounded=0;orthogonalLoop=1;jettySize=auto;html=1;fontSize=12;endArrow=classic;endFill=1;fillColor=#d5e8d4;strokeColor=#82b366;" parent="1" source="mpOMUe2CQrQYa7WsvBK0-425" target="mpOMUe2CQrQYa7WsvBK0-427" edge="1">
          <mxGeometry relative="1" as="geometry" />
        </mxCell>
        <mxCell id="mpOMUe2CQrQYa7WsvBK0-425" value="Egenproduceret korn til slagtegrisen&lt;br&gt;&amp;nbsp;på CHR nummeret" style="ellipse;whiteSpace=wrap;html=1;aspect=fixed;shadow=0;fontFamily=Helvetica;fontSize=12;align=center;strokeColor=#82b366;fillColor=#d5e8d4;sketch=0;" parent="1" vertex="1">
          <mxGeometry x="3260" y="457" width="110" height="110" as="geometry" />
        </mxCell>
        <mxCell id="mpOMUe2CQrQYa7WsvBK0-426" style="edgeStyle=orthogonalEdgeStyle;rounded=0;orthogonalLoop=1;jettySize=auto;html=1;fontSize=12;endArrow=none;endFill=0;fillColor=#d5e8d4;strokeColor=#82b366;" parent="1" source="mpOMUe2CQrQYa7WsvBK0-427" target="mpOMUe2CQrQYa7WsvBK0-420" edge="1">
          <mxGeometry relative="1" as="geometry" />
        </mxCell>
        <mxCell id="mpOMUe2CQrQYa7WsvBK0-427" value="Vægtet gennemsnit: slagtegrisens aftryk m/u LUC uden egenproduceret korn" style="ellipse;whiteSpace=wrap;html=1;aspect=fixed;shadow=0;fontFamily=Helvetica;fontSize=12;align=center;strokeColor=#82b366;fillColor=#d5e8d4;sketch=0;" parent="1" vertex="1">
          <mxGeometry x="3190" y="611.5" width="130" height="130" as="geometry" />
        </mxCell>
        <mxCell id="mpOMUe2CQrQYa7WsvBK0-506" style="edgeStyle=orthogonalEdgeStyle;rounded=0;orthogonalLoop=1;jettySize=auto;html=1;fontSize=12;endArrow=classic;endFill=1;" parent="1" source="mpOMUe2CQrQYa7WsvBK0-428" target="A_WAUtJpo3-AmnUpiRZP-764" edge="1">
          <mxGeometry relative="1" as="geometry">
            <Array as="points">
              <mxPoint x="3505" y="971.5" />
              <mxPoint x="4155" y="971.5" />
            </Array>
          </mxGeometry>
        </mxCell>
        <mxCell id="mpOMUe2CQrQYa7WsvBK0-428" value="Ganges med antallet af FRATS på CHR nummeret" style="rounded=0;whiteSpace=wrap;shadow=0;glass=0;sketch=0;strokeColor=#000000;fontSize=12;fillColor=#FFFFFF;" parent="1" vertex="1">
          <mxGeometry x="3422.75" y="773.87" width="164.5" height="65.25" as="geometry" />
        </mxCell>
        <mxCell id="mpOMUe2CQrQYa7WsvBK0-429" value="FRATS grisen" style="rounded=1;whiteSpace=wrap;html=1;fillColor=#ffe6cc;fontSize=25;strokeColor=#d79b00;" parent="1" vertex="1">
          <mxGeometry x="3390" y="268.75" width="230" height="60" as="geometry" />
        </mxCell>
        <mxCell id="mpOMUe2CQrQYa7WsvBK0-430" style="edgeStyle=orthogonalEdgeStyle;rounded=0;orthogonalLoop=1;jettySize=auto;html=1;fontSize=12;endArrow=classic;endFill=1;fillColor=#ffe6cc;strokeColor=#d79b00;" parent="1" source="mpOMUe2CQrQYa7WsvBK0-431" target="mpOMUe2CQrQYa7WsvBK0-435" edge="1">
          <mxGeometry relative="1" as="geometry" />
        </mxCell>
        <mxCell id="mpOMUe2CQrQYa7WsvBK0-431" value="Vægtet gennemsnit: FRATS CO2e aftryk m/u LUC&lt;br&gt;&amp;nbsp;på CHR nummeret" style="ellipse;whiteSpace=wrap;html=1;aspect=fixed;shadow=0;fontFamily=Helvetica;fontSize=12;align=center;strokeColor=#d79b00;fillColor=#ffe6cc;sketch=0;" parent="1" vertex="1">
          <mxGeometry x="3390" y="457" width="110" height="110" as="geometry" />
        </mxCell>
        <mxCell id="mpOMUe2CQrQYa7WsvBK0-432" style="edgeStyle=orthogonalEdgeStyle;rounded=0;orthogonalLoop=1;jettySize=auto;html=1;fontSize=12;endArrow=classic;endFill=1;fillColor=#ffe6cc;strokeColor=#d79b00;" parent="1" source="mpOMUe2CQrQYa7WsvBK0-433" target="mpOMUe2CQrQYa7WsvBK0-435" edge="1">
          <mxGeometry relative="1" as="geometry" />
        </mxCell>
        <mxCell id="mpOMUe2CQrQYa7WsvBK0-433" value="Egenproduceret korn til FRATS&lt;br&gt;&amp;nbsp;på CHR nummeret" style="ellipse;whiteSpace=wrap;html=1;aspect=fixed;shadow=0;fontFamily=Helvetica;fontSize=12;align=center;strokeColor=#d79b00;fillColor=#ffe6cc;sketch=0;" parent="1" vertex="1">
          <mxGeometry x="3510" y="457" width="110" height="110" as="geometry" />
        </mxCell>
        <mxCell id="mpOMUe2CQrQYa7WsvBK0-434" style="edgeStyle=orthogonalEdgeStyle;rounded=0;orthogonalLoop=1;jettySize=auto;html=1;fontSize=12;endArrow=none;endFill=0;fillColor=#ffe6cc;strokeColor=#d79b00;" parent="1" source="mpOMUe2CQrQYa7WsvBK0-435" target="mpOMUe2CQrQYa7WsvBK0-428" edge="1">
          <mxGeometry relative="1" as="geometry" />
        </mxCell>
        <mxCell id="mpOMUe2CQrQYa7WsvBK0-435" value="Vægtet gennemsnit: FRATS aftryk m/u LUC uden egenproduceret korn" style="ellipse;whiteSpace=wrap;html=1;aspect=fixed;shadow=0;fontFamily=Helvetica;fontSize=12;align=center;strokeColor=#d79b00;fillColor=#ffe6cc;sketch=0;" parent="1" vertex="1">
          <mxGeometry x="3440" y="611.5" width="130" height="130" as="geometry" />
        </mxCell>
        <mxCell id="mpOMUe2CQrQYa7WsvBK0-507" style="edgeStyle=orthogonalEdgeStyle;rounded=0;orthogonalLoop=1;jettySize=auto;html=1;fontSize=12;endArrow=classic;endFill=1;" parent="1" source="mpOMUe2CQrQYa7WsvBK0-436" target="A_WAUtJpo3-AmnUpiRZP-764" edge="1">
          <mxGeometry relative="1" as="geometry">
            <Array as="points">
              <mxPoint x="3775" y="971.5" />
              <mxPoint x="4155" y="971.5" />
            </Array>
          </mxGeometry>
        </mxCell>
        <mxCell id="mpOMUe2CQrQYa7WsvBK0-436" value="Ganges med antallet af årssøer på CHR nummeret" style="rounded=0;whiteSpace=wrap;shadow=0;glass=0;sketch=0;strokeColor=#000000;fontSize=12;fillColor=#FFFFFF;" parent="1" vertex="1">
          <mxGeometry x="3692.75" y="777.87" width="164.5" height="65.25" as="geometry" />
        </mxCell>
        <mxCell id="mpOMUe2CQrQYa7WsvBK0-437" value="CHR 222222" style="rounded=1;whiteSpace=wrap;html=1;shadow=0;glass=0;sketch=0;strokeColor=#808080;fontSize=62;fillColor=default;gradientColor=none;rotation=0;opacity=90;" parent="1" vertex="1">
          <mxGeometry x="3660" y="184" width="980" height="77.5" as="geometry" />
        </mxCell>
        <mxCell id="mpOMUe2CQrQYa7WsvBK0-438" value="Årssoen" style="rounded=1;whiteSpace=wrap;html=1;fillColor=#dae8fc;fontSize=25;strokeColor=#6c8ebf;" parent="1" vertex="1">
          <mxGeometry x="3660" y="272.75" width="230" height="60" as="geometry" />
        </mxCell>
        <mxCell id="mpOMUe2CQrQYa7WsvBK0-439" style="edgeStyle=orthogonalEdgeStyle;rounded=0;orthogonalLoop=1;jettySize=auto;html=1;fontSize=12;endArrow=classic;endFill=1;fillColor=#dae8fc;strokeColor=#6c8ebf;" parent="1" source="mpOMUe2CQrQYa7WsvBK0-440" target="mpOMUe2CQrQYa7WsvBK0-444" edge="1">
          <mxGeometry relative="1" as="geometry" />
        </mxCell>
        <mxCell id="mpOMUe2CQrQYa7WsvBK0-440" value="Vægtet gennemsnit: årssoens CO2e aftryk m/u LUC&lt;br&gt;&amp;nbsp;på CHR nummeret" style="ellipse;whiteSpace=wrap;html=1;aspect=fixed;shadow=0;fontFamily=Helvetica;fontSize=12;align=center;strokeColor=#6c8ebf;fillColor=#dae8fc;sketch=0;" parent="1" vertex="1">
          <mxGeometry x="3660" y="461" width="110" height="110" as="geometry" />
        </mxCell>
        <mxCell id="mpOMUe2CQrQYa7WsvBK0-441" style="edgeStyle=orthogonalEdgeStyle;rounded=0;orthogonalLoop=1;jettySize=auto;html=1;fontSize=12;endArrow=classic;endFill=1;fillColor=#dae8fc;strokeColor=#6c8ebf;" parent="1" source="mpOMUe2CQrQYa7WsvBK0-442" target="mpOMUe2CQrQYa7WsvBK0-444" edge="1">
          <mxGeometry relative="1" as="geometry" />
        </mxCell>
        <mxCell id="mpOMUe2CQrQYa7WsvBK0-442" value="Egenproduceret korn til årssoen&lt;br&gt;&amp;nbsp;på CHR nummeret" style="ellipse;whiteSpace=wrap;html=1;aspect=fixed;shadow=0;fontFamily=Helvetica;fontSize=12;align=center;strokeColor=#6c8ebf;fillColor=#dae8fc;sketch=0;" parent="1" vertex="1">
          <mxGeometry x="3780" y="461" width="110" height="110" as="geometry" />
        </mxCell>
        <mxCell id="mpOMUe2CQrQYa7WsvBK0-443" style="edgeStyle=orthogonalEdgeStyle;rounded=0;orthogonalLoop=1;jettySize=auto;html=1;fontSize=12;endArrow=none;endFill=0;fillColor=#dae8fc;strokeColor=#6c8ebf;" parent="1" source="mpOMUe2CQrQYa7WsvBK0-444" target="mpOMUe2CQrQYa7WsvBK0-436" edge="1">
          <mxGeometry relative="1" as="geometry" />
        </mxCell>
        <mxCell id="mpOMUe2CQrQYa7WsvBK0-444" value="Vægtet gennemsnit: årssoens aftryk m/u LUC uden egenproduceret korn" style="ellipse;whiteSpace=wrap;html=1;aspect=fixed;shadow=0;fontFamily=Helvetica;fontSize=12;align=center;strokeColor=#6c8ebf;fillColor=#dae8fc;sketch=0;" parent="1" vertex="1">
          <mxGeometry x="3710" y="615.5" width="130" height="130" as="geometry" />
        </mxCell>
        <mxCell id="mpOMUe2CQrQYa7WsvBK0-508" style="edgeStyle=orthogonalEdgeStyle;rounded=0;orthogonalLoop=1;jettySize=auto;html=1;fontSize=12;endArrow=classic;endFill=1;" parent="1" source="mpOMUe2CQrQYa7WsvBK0-445" target="A_WAUtJpo3-AmnUpiRZP-764" edge="1">
          <mxGeometry relative="1" as="geometry">
            <Array as="points">
              <mxPoint x="4025" y="971.5" />
              <mxPoint x="4155" y="971.5" />
            </Array>
          </mxGeometry>
        </mxCell>
        <mxCell id="mpOMUe2CQrQYa7WsvBK0-445" value="Ganges med antallet af smågrise på CHR nummeret" style="rounded=0;whiteSpace=wrap;shadow=0;glass=0;sketch=0;strokeColor=#000000;fontSize=12;fillColor=#FFFFFF;" parent="1" vertex="1">
          <mxGeometry x="3942.75" y="777.87" width="164.5" height="65.25" as="geometry" />
        </mxCell>
        <mxCell id="mpOMUe2CQrQYa7WsvBK0-446" value="Smågrisen" style="rounded=1;whiteSpace=wrap;html=1;fillColor=#e1d5e7;fontSize=25;strokeColor=#9673a6;" parent="1" vertex="1">
          <mxGeometry x="3910" y="272.75" width="230" height="60" as="geometry" />
        </mxCell>
        <mxCell id="mpOMUe2CQrQYa7WsvBK0-447" style="edgeStyle=orthogonalEdgeStyle;rounded=0;orthogonalLoop=1;jettySize=auto;html=1;fontSize=12;endArrow=classic;endFill=1;fillColor=#e1d5e7;strokeColor=#9673a6;" parent="1" source="mpOMUe2CQrQYa7WsvBK0-448" target="mpOMUe2CQrQYa7WsvBK0-452" edge="1">
          <mxGeometry relative="1" as="geometry" />
        </mxCell>
        <mxCell id="mpOMUe2CQrQYa7WsvBK0-448" value="Vægtet gennemsnit: smågrisens CO2e aftryk m/u LUC&lt;br&gt;&amp;nbsp;på CHR nummeret" style="ellipse;whiteSpace=wrap;html=1;aspect=fixed;shadow=0;fontFamily=Helvetica;fontSize=12;align=center;strokeColor=#9673a6;fillColor=#e1d5e7;sketch=0;" parent="1" vertex="1">
          <mxGeometry x="3910" y="461" width="110" height="110" as="geometry" />
        </mxCell>
        <mxCell id="mpOMUe2CQrQYa7WsvBK0-449" style="edgeStyle=orthogonalEdgeStyle;rounded=0;orthogonalLoop=1;jettySize=auto;html=1;fontSize=12;endArrow=classic;endFill=1;fillColor=#e1d5e7;strokeColor=#9673a6;" parent="1" source="mpOMUe2CQrQYa7WsvBK0-450" target="mpOMUe2CQrQYa7WsvBK0-452" edge="1">
          <mxGeometry relative="1" as="geometry" />
        </mxCell>
        <mxCell id="mpOMUe2CQrQYa7WsvBK0-450" value="Egenproduceret korn til smågrisen&lt;br&gt;&amp;nbsp;på CHR nummeret" style="ellipse;whiteSpace=wrap;html=1;aspect=fixed;shadow=0;fontFamily=Helvetica;fontSize=12;align=center;strokeColor=#9673a6;fillColor=#e1d5e7;sketch=0;" parent="1" vertex="1">
          <mxGeometry x="4030" y="461" width="110" height="110" as="geometry" />
        </mxCell>
        <mxCell id="mpOMUe2CQrQYa7WsvBK0-451" style="edgeStyle=orthogonalEdgeStyle;rounded=0;orthogonalLoop=1;jettySize=auto;html=1;fontSize=12;endArrow=none;endFill=0;fillColor=#e1d5e7;strokeColor=#9673a6;" parent="1" source="mpOMUe2CQrQYa7WsvBK0-452" target="mpOMUe2CQrQYa7WsvBK0-445" edge="1">
          <mxGeometry relative="1" as="geometry" />
        </mxCell>
        <mxCell id="mpOMUe2CQrQYa7WsvBK0-452" value="Vægtet gennemsnit: smågrisens aftryk m/u LUC uden egenproduceret korn" style="ellipse;whiteSpace=wrap;html=1;aspect=fixed;shadow=0;fontFamily=Helvetica;fontSize=12;align=center;strokeColor=#9673a6;fillColor=#e1d5e7;sketch=0;" parent="1" vertex="1">
          <mxGeometry x="3960" y="615.5" width="130" height="130" as="geometry" />
        </mxCell>
        <mxCell id="mpOMUe2CQrQYa7WsvBK0-509" style="edgeStyle=orthogonalEdgeStyle;rounded=0;orthogonalLoop=1;jettySize=auto;html=1;fontSize=12;endArrow=classic;endFill=1;" parent="1" edge="1">
          <mxGeometry relative="1" as="geometry">
            <mxPoint x="4275.0526315789475" y="841.1200000000003" as="sourcePoint" />
            <mxPoint x="4155" y="1039.5" as="targetPoint" />
            <Array as="points">
              <mxPoint x="4275" y="972" />
              <mxPoint x="4155" y="972" />
            </Array>
          </mxGeometry>
        </mxCell>
        <mxCell id="mpOMUe2CQrQYa7WsvBK0-453" value="Ganges med antallet af slagtegrise på CHR nummeret" style="rounded=0;whiteSpace=wrap;shadow=0;glass=0;sketch=0;strokeColor=#000000;fontSize=12;fillColor=#FFFFFF;" parent="1" vertex="1">
          <mxGeometry x="4192.75" y="777.87" width="164.5" height="65.25" as="geometry" />
        </mxCell>
        <mxCell id="mpOMUe2CQrQYa7WsvBK0-454" value="Slagtegrisen" style="rounded=1;whiteSpace=wrap;html=1;fillColor=#d5e8d4;fontSize=25;strokeColor=#82b366;" parent="1" vertex="1">
          <mxGeometry x="4160" y="272.75" width="230" height="60" as="geometry" />
        </mxCell>
        <mxCell id="mpOMUe2CQrQYa7WsvBK0-455" style="edgeStyle=orthogonalEdgeStyle;rounded=0;orthogonalLoop=1;jettySize=auto;html=1;fontSize=12;endArrow=classic;endFill=1;fillColor=#d5e8d4;strokeColor=#82b366;" parent="1" source="mpOMUe2CQrQYa7WsvBK0-456" target="mpOMUe2CQrQYa7WsvBK0-460" edge="1">
          <mxGeometry relative="1" as="geometry" />
        </mxCell>
        <mxCell id="mpOMUe2CQrQYa7WsvBK0-456" value="Vægtet gennemsnit: slagtegrisens CO2e aftryk m/u LUC&lt;br&gt;&amp;nbsp;på CHR nummeret" style="ellipse;whiteSpace=wrap;html=1;aspect=fixed;shadow=0;fontFamily=Helvetica;fontSize=12;align=center;strokeColor=#82b366;fillColor=#d5e8d4;sketch=0;" parent="1" vertex="1">
          <mxGeometry x="4160" y="461" width="110" height="110" as="geometry" />
        </mxCell>
        <mxCell id="mpOMUe2CQrQYa7WsvBK0-457" style="edgeStyle=orthogonalEdgeStyle;rounded=0;orthogonalLoop=1;jettySize=auto;html=1;fontSize=12;endArrow=classic;endFill=1;fillColor=#d5e8d4;strokeColor=#82b366;" parent="1" source="mpOMUe2CQrQYa7WsvBK0-458" target="mpOMUe2CQrQYa7WsvBK0-460" edge="1">
          <mxGeometry relative="1" as="geometry" />
        </mxCell>
        <mxCell id="mpOMUe2CQrQYa7WsvBK0-458" value="Egenproduceret korn til slagtegrisen&lt;br&gt;&amp;nbsp;på CHR nummeret" style="ellipse;whiteSpace=wrap;html=1;aspect=fixed;shadow=0;fontFamily=Helvetica;fontSize=12;align=center;strokeColor=#82b366;fillColor=#d5e8d4;sketch=0;" parent="1" vertex="1">
          <mxGeometry x="4280" y="461" width="110" height="110" as="geometry" />
        </mxCell>
        <mxCell id="mpOMUe2CQrQYa7WsvBK0-459" style="edgeStyle=orthogonalEdgeStyle;rounded=0;orthogonalLoop=1;jettySize=auto;html=1;fontSize=12;endArrow=none;endFill=0;fillColor=#d5e8d4;strokeColor=#82b366;" parent="1" source="mpOMUe2CQrQYa7WsvBK0-460" target="mpOMUe2CQrQYa7WsvBK0-453" edge="1">
          <mxGeometry relative="1" as="geometry" />
        </mxCell>
        <mxCell id="mpOMUe2CQrQYa7WsvBK0-460" value="Vægtet gennemsnit: slagtegrisens aftryk m/u LUC uden egenproduceret korn" style="ellipse;whiteSpace=wrap;html=1;aspect=fixed;shadow=0;fontFamily=Helvetica;fontSize=12;align=center;strokeColor=#82b366;fillColor=#d5e8d4;sketch=0;" parent="1" vertex="1">
          <mxGeometry x="4210" y="615.5" width="130" height="130" as="geometry" />
        </mxCell>
        <mxCell id="mpOMUe2CQrQYa7WsvBK0-510" style="edgeStyle=orthogonalEdgeStyle;rounded=0;orthogonalLoop=1;jettySize=auto;html=1;fontSize=12;endArrow=classic;endFill=1;" parent="1" edge="1">
          <mxGeometry relative="1" as="geometry">
            <mxPoint x="4525.0526315789475" y="841.1200000000003" as="sourcePoint" />
            <mxPoint x="4155" y="1039.5" as="targetPoint" />
            <Array as="points">
              <mxPoint x="4525" y="972" />
              <mxPoint x="4155" y="972" />
            </Array>
          </mxGeometry>
        </mxCell>
        <mxCell id="mpOMUe2CQrQYa7WsvBK0-461" value="Ganges med antallet af FRATS på CHR nummeret" style="rounded=0;whiteSpace=wrap;shadow=0;glass=0;sketch=0;strokeColor=#000000;fontSize=12;fillColor=#FFFFFF;" parent="1" vertex="1">
          <mxGeometry x="4442.75" y="777.87" width="164.5" height="65.25" as="geometry" />
        </mxCell>
        <mxCell id="mpOMUe2CQrQYa7WsvBK0-462" value="FRATS grisen" style="rounded=1;whiteSpace=wrap;html=1;fillColor=#ffe6cc;fontSize=25;strokeColor=#d79b00;" parent="1" vertex="1">
          <mxGeometry x="4410" y="272.75" width="230" height="60" as="geometry" />
        </mxCell>
        <mxCell id="mpOMUe2CQrQYa7WsvBK0-463" style="edgeStyle=orthogonalEdgeStyle;rounded=0;orthogonalLoop=1;jettySize=auto;html=1;fontSize=12;endArrow=classic;endFill=1;fillColor=#ffe6cc;strokeColor=#d79b00;" parent="1" source="mpOMUe2CQrQYa7WsvBK0-464" target="mpOMUe2CQrQYa7WsvBK0-468" edge="1">
          <mxGeometry relative="1" as="geometry" />
        </mxCell>
        <mxCell id="mpOMUe2CQrQYa7WsvBK0-464" value="Vægtet gennemsnit: FRATS CO2e aftryk m/u LUC&lt;br&gt;&amp;nbsp;på CHR nummeret" style="ellipse;whiteSpace=wrap;html=1;aspect=fixed;shadow=0;fontFamily=Helvetica;fontSize=12;align=center;strokeColor=#d79b00;fillColor=#ffe6cc;sketch=0;" parent="1" vertex="1">
          <mxGeometry x="4410" y="461" width="110" height="110" as="geometry" />
        </mxCell>
        <mxCell id="mpOMUe2CQrQYa7WsvBK0-465" style="edgeStyle=orthogonalEdgeStyle;rounded=0;orthogonalLoop=1;jettySize=auto;html=1;fontSize=12;endArrow=classic;endFill=1;fillColor=#ffe6cc;strokeColor=#d79b00;" parent="1" source="mpOMUe2CQrQYa7WsvBK0-466" target="mpOMUe2CQrQYa7WsvBK0-468" edge="1">
          <mxGeometry relative="1" as="geometry" />
        </mxCell>
        <mxCell id="mpOMUe2CQrQYa7WsvBK0-466" value="Egenproduceret korn til FRATS&lt;br&gt;&amp;nbsp;på CHR nummeret" style="ellipse;whiteSpace=wrap;html=1;aspect=fixed;shadow=0;fontFamily=Helvetica;fontSize=12;align=center;strokeColor=#d79b00;fillColor=#ffe6cc;sketch=0;" parent="1" vertex="1">
          <mxGeometry x="4530" y="461" width="110" height="110" as="geometry" />
        </mxCell>
        <mxCell id="mpOMUe2CQrQYa7WsvBK0-467" style="edgeStyle=orthogonalEdgeStyle;rounded=0;orthogonalLoop=1;jettySize=auto;html=1;fontSize=12;endArrow=none;endFill=0;fillColor=#ffe6cc;strokeColor=#d79b00;" parent="1" source="mpOMUe2CQrQYa7WsvBK0-468" target="mpOMUe2CQrQYa7WsvBK0-461" edge="1">
          <mxGeometry relative="1" as="geometry" />
        </mxCell>
        <mxCell id="mpOMUe2CQrQYa7WsvBK0-468" value="Vægtet gennemsnit: FRATS aftryk m/u LUC uden egenproduceret korn" style="ellipse;whiteSpace=wrap;html=1;aspect=fixed;shadow=0;fontFamily=Helvetica;fontSize=12;align=center;strokeColor=#d79b00;fillColor=#ffe6cc;sketch=0;" parent="1" vertex="1">
          <mxGeometry x="4460" y="615.5" width="130" height="130" as="geometry" />
        </mxCell>
        <mxCell id="mpOMUe2CQrQYa7WsvBK0-511" style="edgeStyle=orthogonalEdgeStyle;rounded=0;orthogonalLoop=1;jettySize=auto;html=1;fontSize=12;endArrow=classic;endFill=1;" parent="1" edge="1">
          <mxGeometry relative="1" as="geometry">
            <mxPoint x="4805.058823529413" y="841.1199999999999" as="sourcePoint" />
            <mxPoint x="4155" y="1039.5" as="targetPoint" />
            <Array as="points">
              <mxPoint x="4805" y="972" />
              <mxPoint x="4155" y="972" />
            </Array>
          </mxGeometry>
        </mxCell>
        <mxCell id="mpOMUe2CQrQYa7WsvBK0-469" value="Ganges med antallet af årssøer på CHR nummeret" style="rounded=0;whiteSpace=wrap;shadow=0;glass=0;sketch=0;strokeColor=#000000;fontSize=12;fillColor=#FFFFFF;" parent="1" vertex="1">
          <mxGeometry x="4722.75" y="777.87" width="164.5" height="65.25" as="geometry" />
        </mxCell>
        <mxCell id="mpOMUe2CQrQYa7WsvBK0-470" value="CHR XXXXXX" style="rounded=1;whiteSpace=wrap;html=1;shadow=0;glass=0;sketch=0;strokeColor=#808080;fontSize=62;fillColor=default;gradientColor=none;rotation=0;opacity=90;" parent="1" vertex="1">
          <mxGeometry x="4690" y="184" width="980" height="77.5" as="geometry" />
        </mxCell>
        <mxCell id="mpOMUe2CQrQYa7WsvBK0-471" value="Årssoen" style="rounded=1;whiteSpace=wrap;html=1;fillColor=#dae8fc;fontSize=25;strokeColor=#6c8ebf;" parent="1" vertex="1">
          <mxGeometry x="4690" y="272.75" width="230" height="60" as="geometry" />
        </mxCell>
        <mxCell id="mpOMUe2CQrQYa7WsvBK0-472" style="edgeStyle=orthogonalEdgeStyle;rounded=0;orthogonalLoop=1;jettySize=auto;html=1;fontSize=12;endArrow=classic;endFill=1;fillColor=#dae8fc;strokeColor=#6c8ebf;" parent="1" source="mpOMUe2CQrQYa7WsvBK0-473" target="mpOMUe2CQrQYa7WsvBK0-477" edge="1">
          <mxGeometry relative="1" as="geometry" />
        </mxCell>
        <mxCell id="mpOMUe2CQrQYa7WsvBK0-473" value="Vægtet gennemsnit: årssoens CO2e aftryk m/u LUC&lt;br&gt;&amp;nbsp;på CHR nummeret" style="ellipse;whiteSpace=wrap;html=1;aspect=fixed;shadow=0;fontFamily=Helvetica;fontSize=12;align=center;strokeColor=#6c8ebf;fillColor=#dae8fc;sketch=0;" parent="1" vertex="1">
          <mxGeometry x="4690" y="461" width="110" height="110" as="geometry" />
        </mxCell>
        <mxCell id="mpOMUe2CQrQYa7WsvBK0-474" style="edgeStyle=orthogonalEdgeStyle;rounded=0;orthogonalLoop=1;jettySize=auto;html=1;fontSize=12;endArrow=classic;endFill=1;fillColor=#dae8fc;strokeColor=#6c8ebf;" parent="1" source="mpOMUe2CQrQYa7WsvBK0-475" target="mpOMUe2CQrQYa7WsvBK0-477" edge="1">
          <mxGeometry relative="1" as="geometry" />
        </mxCell>
        <mxCell id="mpOMUe2CQrQYa7WsvBK0-475" value="Egenproduceret korn til årssoen&lt;br&gt;&amp;nbsp;på CHR nummeret" style="ellipse;whiteSpace=wrap;html=1;aspect=fixed;shadow=0;fontFamily=Helvetica;fontSize=12;align=center;strokeColor=#6c8ebf;fillColor=#dae8fc;sketch=0;" parent="1" vertex="1">
          <mxGeometry x="4810" y="461" width="110" height="110" as="geometry" />
        </mxCell>
        <mxCell id="mpOMUe2CQrQYa7WsvBK0-476" style="edgeStyle=orthogonalEdgeStyle;rounded=0;orthogonalLoop=1;jettySize=auto;html=1;fontSize=12;endArrow=none;endFill=0;fillColor=#dae8fc;strokeColor=#6c8ebf;" parent="1" source="mpOMUe2CQrQYa7WsvBK0-477" target="mpOMUe2CQrQYa7WsvBK0-469" edge="1">
          <mxGeometry relative="1" as="geometry" />
        </mxCell>
        <mxCell id="mpOMUe2CQrQYa7WsvBK0-477" value="Vægtet gennemsnit: årssoens aftryk m/u LUC uden egenproduceret korn" style="ellipse;whiteSpace=wrap;html=1;aspect=fixed;shadow=0;fontFamily=Helvetica;fontSize=12;align=center;strokeColor=#6c8ebf;fillColor=#dae8fc;sketch=0;" parent="1" vertex="1">
          <mxGeometry x="4740" y="615.5" width="130" height="130" as="geometry" />
        </mxCell>
        <mxCell id="mpOMUe2CQrQYa7WsvBK0-512" style="edgeStyle=orthogonalEdgeStyle;rounded=0;orthogonalLoop=1;jettySize=auto;html=1;fontSize=12;endArrow=classic;endFill=1;" parent="1" edge="1">
          <mxGeometry relative="1" as="geometry">
            <mxPoint x="5055.042553191489" y="841.1199999999999" as="sourcePoint" />
            <mxPoint x="4155" y="1039.5" as="targetPoint" />
            <Array as="points">
              <mxPoint x="5055" y="972" />
              <mxPoint x="4155" y="972" />
            </Array>
          </mxGeometry>
        </mxCell>
        <mxCell id="mpOMUe2CQrQYa7WsvBK0-478" value="Ganges med antallet af smågrise på CHR nummeret" style="rounded=0;whiteSpace=wrap;shadow=0;glass=0;sketch=0;strokeColor=#000000;fontSize=12;fillColor=#FFFFFF;" parent="1" vertex="1">
          <mxGeometry x="4972.75" y="777.87" width="164.5" height="65.25" as="geometry" />
        </mxCell>
        <mxCell id="mpOMUe2CQrQYa7WsvBK0-479" value="Smågrisen" style="rounded=1;whiteSpace=wrap;html=1;fillColor=#e1d5e7;fontSize=25;strokeColor=#9673a6;" parent="1" vertex="1">
          <mxGeometry x="4940" y="272.75" width="230" height="60" as="geometry" />
        </mxCell>
        <mxCell id="mpOMUe2CQrQYa7WsvBK0-480" style="edgeStyle=orthogonalEdgeStyle;rounded=0;orthogonalLoop=1;jettySize=auto;html=1;fontSize=12;endArrow=classic;endFill=1;fillColor=#e1d5e7;strokeColor=#9673a6;" parent="1" source="mpOMUe2CQrQYa7WsvBK0-481" target="mpOMUe2CQrQYa7WsvBK0-485" edge="1">
          <mxGeometry relative="1" as="geometry" />
        </mxCell>
        <mxCell id="mpOMUe2CQrQYa7WsvBK0-481" value="Vægtet gennemsnit: smågrisens CO2e aftryk m/u LUC&lt;br&gt;&amp;nbsp;på CHR nummeret" style="ellipse;whiteSpace=wrap;html=1;aspect=fixed;shadow=0;fontFamily=Helvetica;fontSize=12;align=center;strokeColor=#9673a6;fillColor=#e1d5e7;sketch=0;" parent="1" vertex="1">
          <mxGeometry x="4940" y="461" width="110" height="110" as="geometry" />
        </mxCell>
        <mxCell id="mpOMUe2CQrQYa7WsvBK0-482" style="edgeStyle=orthogonalEdgeStyle;rounded=0;orthogonalLoop=1;jettySize=auto;html=1;fontSize=12;endArrow=classic;endFill=1;fillColor=#e1d5e7;strokeColor=#9673a6;" parent="1" source="mpOMUe2CQrQYa7WsvBK0-483" target="mpOMUe2CQrQYa7WsvBK0-485" edge="1">
          <mxGeometry relative="1" as="geometry" />
        </mxCell>
        <mxCell id="mpOMUe2CQrQYa7WsvBK0-483" value="Egenproduceret korn til smågrisen&lt;br&gt;&amp;nbsp;på CHR nummeret" style="ellipse;whiteSpace=wrap;html=1;aspect=fixed;shadow=0;fontFamily=Helvetica;fontSize=12;align=center;strokeColor=#9673a6;fillColor=#e1d5e7;sketch=0;" parent="1" vertex="1">
          <mxGeometry x="5060" y="461" width="110" height="110" as="geometry" />
        </mxCell>
        <mxCell id="mpOMUe2CQrQYa7WsvBK0-484" style="edgeStyle=orthogonalEdgeStyle;rounded=0;orthogonalLoop=1;jettySize=auto;html=1;fontSize=12;endArrow=none;endFill=0;fillColor=#e1d5e7;strokeColor=#9673a6;" parent="1" source="mpOMUe2CQrQYa7WsvBK0-485" target="mpOMUe2CQrQYa7WsvBK0-478" edge="1">
          <mxGeometry relative="1" as="geometry" />
        </mxCell>
        <mxCell id="mpOMUe2CQrQYa7WsvBK0-485" value="Vægtet gennemsnit: smågrisens aftryk m/u LUC uden egenproduceret korn" style="ellipse;whiteSpace=wrap;html=1;aspect=fixed;shadow=0;fontFamily=Helvetica;fontSize=12;align=center;strokeColor=#9673a6;fillColor=#e1d5e7;sketch=0;" parent="1" vertex="1">
          <mxGeometry x="4990" y="615.5" width="130" height="130" as="geometry" />
        </mxCell>
        <mxCell id="mpOMUe2CQrQYa7WsvBK0-513" style="edgeStyle=orthogonalEdgeStyle;rounded=0;orthogonalLoop=1;jettySize=auto;html=1;fontSize=12;endArrow=classic;endFill=1;" parent="1" edge="1">
          <mxGeometry relative="1" as="geometry">
            <mxPoint x="5305.042553191489" y="841.1199999999999" as="sourcePoint" />
            <mxPoint x="4155" y="1039.5" as="targetPoint" />
            <Array as="points">
              <mxPoint x="5305" y="972" />
              <mxPoint x="4155" y="972" />
            </Array>
          </mxGeometry>
        </mxCell>
        <mxCell id="mpOMUe2CQrQYa7WsvBK0-486" value="Ganges med antallet af slagtegrise på CHR nummeret" style="rounded=0;whiteSpace=wrap;shadow=0;glass=0;sketch=0;strokeColor=#000000;fontSize=12;fillColor=#FFFFFF;" parent="1" vertex="1">
          <mxGeometry x="5222.75" y="777.87" width="164.5" height="65.25" as="geometry" />
        </mxCell>
        <mxCell id="mpOMUe2CQrQYa7WsvBK0-487" value="Slagtegrisen" style="rounded=1;whiteSpace=wrap;html=1;fillColor=#d5e8d4;fontSize=25;strokeColor=#82b366;" parent="1" vertex="1">
          <mxGeometry x="5190" y="272.75" width="230" height="60" as="geometry" />
        </mxCell>
        <mxCell id="mpOMUe2CQrQYa7WsvBK0-488" style="edgeStyle=orthogonalEdgeStyle;rounded=0;orthogonalLoop=1;jettySize=auto;html=1;fontSize=12;endArrow=classic;endFill=1;fillColor=#d5e8d4;strokeColor=#82b366;" parent="1" source="mpOMUe2CQrQYa7WsvBK0-489" target="mpOMUe2CQrQYa7WsvBK0-493" edge="1">
          <mxGeometry relative="1" as="geometry" />
        </mxCell>
        <mxCell id="mpOMUe2CQrQYa7WsvBK0-489" value="Vægtet gennemsnit: slagtegrisens CO2e aftryk m/u LUC&lt;br&gt;&amp;nbsp;på CHR nummeret" style="ellipse;whiteSpace=wrap;html=1;aspect=fixed;shadow=0;fontFamily=Helvetica;fontSize=12;align=center;strokeColor=#82b366;fillColor=#d5e8d4;sketch=0;" parent="1" vertex="1">
          <mxGeometry x="5190" y="461" width="110" height="110" as="geometry" />
        </mxCell>
        <mxCell id="mpOMUe2CQrQYa7WsvBK0-490" style="edgeStyle=orthogonalEdgeStyle;rounded=0;orthogonalLoop=1;jettySize=auto;html=1;fontSize=12;endArrow=classic;endFill=1;fillColor=#d5e8d4;strokeColor=#82b366;" parent="1" source="mpOMUe2CQrQYa7WsvBK0-491" target="mpOMUe2CQrQYa7WsvBK0-493" edge="1">
          <mxGeometry relative="1" as="geometry" />
        </mxCell>
        <mxCell id="mpOMUe2CQrQYa7WsvBK0-491" value="Egenproduceret korn til slagtegrisen&lt;br&gt;&amp;nbsp;på CHR nummeret" style="ellipse;whiteSpace=wrap;html=1;aspect=fixed;shadow=0;fontFamily=Helvetica;fontSize=12;align=center;strokeColor=#82b366;fillColor=#d5e8d4;sketch=0;" parent="1" vertex="1">
          <mxGeometry x="5310" y="461" width="110" height="110" as="geometry" />
        </mxCell>
        <mxCell id="mpOMUe2CQrQYa7WsvBK0-492" style="edgeStyle=orthogonalEdgeStyle;rounded=0;orthogonalLoop=1;jettySize=auto;html=1;fontSize=12;endArrow=none;endFill=0;fillColor=#d5e8d4;strokeColor=#82b366;" parent="1" source="mpOMUe2CQrQYa7WsvBK0-493" target="mpOMUe2CQrQYa7WsvBK0-486" edge="1">
          <mxGeometry relative="1" as="geometry" />
        </mxCell>
        <mxCell id="mpOMUe2CQrQYa7WsvBK0-493" value="Vægtet gennemsnit: slagtegrisens aftryk m/u LUC uden egenproduceret korn" style="ellipse;whiteSpace=wrap;html=1;aspect=fixed;shadow=0;fontFamily=Helvetica;fontSize=12;align=center;strokeColor=#82b366;fillColor=#d5e8d4;sketch=0;" parent="1" vertex="1">
          <mxGeometry x="5240" y="615.5" width="130" height="130" as="geometry" />
        </mxCell>
        <mxCell id="mpOMUe2CQrQYa7WsvBK0-514" style="edgeStyle=orthogonalEdgeStyle;rounded=0;orthogonalLoop=1;jettySize=auto;html=1;fontSize=12;endArrow=classic;endFill=1;" parent="1" edge="1">
          <mxGeometry relative="1" as="geometry">
            <mxPoint x="5555.0526315789475" y="841.1200000000003" as="sourcePoint" />
            <mxPoint x="4155" y="1039.5" as="targetPoint" />
            <Array as="points">
              <mxPoint x="5555" y="972" />
              <mxPoint x="4155" y="972" />
            </Array>
          </mxGeometry>
        </mxCell>
        <mxCell id="mpOMUe2CQrQYa7WsvBK0-494" value="Ganges med antallet af FRATS på CHR nummeret" style="rounded=0;whiteSpace=wrap;shadow=0;glass=0;sketch=0;strokeColor=#000000;fontSize=12;fillColor=#FFFFFF;" parent="1" vertex="1">
          <mxGeometry x="5472.75" y="777.87" width="164.5" height="65.25" as="geometry" />
        </mxCell>
        <mxCell id="mpOMUe2CQrQYa7WsvBK0-495" value="FRATS grisen" style="rounded=1;whiteSpace=wrap;html=1;fillColor=#ffe6cc;fontSize=25;strokeColor=#d79b00;" parent="1" vertex="1">
          <mxGeometry x="5440" y="272.75" width="230" height="60" as="geometry" />
        </mxCell>
        <mxCell id="mpOMUe2CQrQYa7WsvBK0-496" style="edgeStyle=orthogonalEdgeStyle;rounded=0;orthogonalLoop=1;jettySize=auto;html=1;fontSize=12;endArrow=classic;endFill=1;fillColor=#ffe6cc;strokeColor=#d79b00;" parent="1" source="mpOMUe2CQrQYa7WsvBK0-497" target="mpOMUe2CQrQYa7WsvBK0-501" edge="1">
          <mxGeometry relative="1" as="geometry" />
        </mxCell>
        <mxCell id="mpOMUe2CQrQYa7WsvBK0-497" value="Vægtet gennemsnit: FRATS CO2e aftryk m/u LUC&lt;br&gt;&amp;nbsp;på CHR nummeret" style="ellipse;whiteSpace=wrap;html=1;aspect=fixed;shadow=0;fontFamily=Helvetica;fontSize=12;align=center;strokeColor=#d79b00;fillColor=#ffe6cc;sketch=0;" parent="1" vertex="1">
          <mxGeometry x="5440" y="461" width="110" height="110" as="geometry" />
        </mxCell>
        <mxCell id="mpOMUe2CQrQYa7WsvBK0-498" style="edgeStyle=orthogonalEdgeStyle;rounded=0;orthogonalLoop=1;jettySize=auto;html=1;fontSize=12;endArrow=classic;endFill=1;fillColor=#ffe6cc;strokeColor=#d79b00;" parent="1" source="mpOMUe2CQrQYa7WsvBK0-499" target="mpOMUe2CQrQYa7WsvBK0-501" edge="1">
          <mxGeometry relative="1" as="geometry" />
        </mxCell>
        <mxCell id="mpOMUe2CQrQYa7WsvBK0-499" value="Egenproduceret korn til FRATS&lt;br&gt;&amp;nbsp;på CHR nummeret" style="ellipse;whiteSpace=wrap;html=1;aspect=fixed;shadow=0;fontFamily=Helvetica;fontSize=12;align=center;strokeColor=#d79b00;fillColor=#ffe6cc;sketch=0;" parent="1" vertex="1">
          <mxGeometry x="5560" y="461" width="110" height="110" as="geometry" />
        </mxCell>
        <mxCell id="mpOMUe2CQrQYa7WsvBK0-500" style="edgeStyle=orthogonalEdgeStyle;rounded=0;orthogonalLoop=1;jettySize=auto;html=1;fontSize=12;endArrow=none;endFill=0;fillColor=#ffe6cc;strokeColor=#d79b00;" parent="1" source="mpOMUe2CQrQYa7WsvBK0-501" target="mpOMUe2CQrQYa7WsvBK0-494" edge="1">
          <mxGeometry relative="1" as="geometry" />
        </mxCell>
        <mxCell id="mpOMUe2CQrQYa7WsvBK0-501" value="Vægtet gennemsnit: FRATS aftryk m/u LUC uden egenproduceret korn" style="ellipse;whiteSpace=wrap;html=1;aspect=fixed;shadow=0;fontFamily=Helvetica;fontSize=12;align=center;strokeColor=#d79b00;fillColor=#ffe6cc;sketch=0;" parent="1" vertex="1">
          <mxGeometry x="5490" y="615.5" width="130" height="130" as="geometry" />
        </mxCell>
        <mxCell id="mpOMUe2CQrQYa7WsvBK0-519" value="Metoden til at beregne vægtede gennemsnit kan ses i dokumentationen for grisens produktaftryk&amp;nbsp;" style="shape=callout;whiteSpace=wrap;html=1;perimeter=calloutPerimeter;position2=0.67;fontSize=10;" parent="1" vertex="1">
          <mxGeometry x="6090" y="380" width="150" height="100" as="geometry" />
        </mxCell>
        <mxCell id="sJdz69Bt23hOsFUBrbQF-2" value="Vægtet gennemsnit: årssoens CO2e aftryk m/u LUC&lt;br&gt;&amp;nbsp;på CHR nummeret" style="ellipse;whiteSpace=wrap;html=1;aspect=fixed;shadow=0;fontFamily=Helvetica;fontSize=12;align=center;strokeColor=#6c8ebf;fillColor=#dae8fc;sketch=0;" vertex="1" parent="1">
          <mxGeometry x="2700" y="347" width="110" height="110" as="geometry" />
        </mxCell>
        <mxCell id="sJdz69Bt23hOsFUBrbQF-3" value="Vægtet gennemsnit: smågrisens CO2e aftryk m/u LUC&lt;br&gt;&amp;nbsp;på CHR nummeret" style="ellipse;whiteSpace=wrap;html=1;aspect=fixed;shadow=0;fontFamily=Helvetica;fontSize=12;align=center;strokeColor=#9673a6;fillColor=#e1d5e7;sketch=0;" vertex="1" parent="1">
          <mxGeometry x="2950" y="347" width="110" height="110" as="geometry" />
        </mxCell>
        <mxCell id="sJdz69Bt23hOsFUBrbQF-4" value="Vægtet gennemsnit: slagtegrisens CO2e aftryk m/u LUC&lt;br&gt;&amp;nbsp;på CHR nummeret" style="ellipse;whiteSpace=wrap;html=1;aspect=fixed;shadow=0;fontFamily=Helvetica;fontSize=12;align=center;strokeColor=#82b366;fillColor=#d5e8d4;sketch=0;" vertex="1" parent="1">
          <mxGeometry x="3200" y="347" width="110" height="110" as="geometry" />
        </mxCell>
        <mxCell id="sJdz69Bt23hOsFUBrbQF-5" value="Vægtet gennemsnit: FRATS CO2e aftryk m/u LUC&lt;br&gt;&amp;nbsp;på CHR nummeret" style="ellipse;whiteSpace=wrap;html=1;aspect=fixed;shadow=0;fontFamily=Helvetica;fontSize=12;align=center;strokeColor=#d79b00;fillColor=#ffe6cc;sketch=0;" vertex="1" parent="1">
          <mxGeometry x="3450" y="347" width="110" height="110" as="geometry" />
        </mxCell>
        <mxCell id="sJdz69Bt23hOsFUBrbQF-6" value="Vægtet gennemsnit: årssoens CO2e aftryk m/u LUC&lt;br&gt;&amp;nbsp;på CHR nummeret" style="ellipse;whiteSpace=wrap;html=1;aspect=fixed;shadow=0;fontFamily=Helvetica;fontSize=12;align=center;strokeColor=#6c8ebf;fillColor=#dae8fc;sketch=0;" vertex="1" parent="1">
          <mxGeometry x="3720" y="351" width="110" height="110" as="geometry" />
        </mxCell>
        <mxCell id="sJdz69Bt23hOsFUBrbQF-7" value="Vægtet gennemsnit: smågrisens CO2e aftryk m/u LUC&lt;br&gt;&amp;nbsp;på CHR nummeret" style="ellipse;whiteSpace=wrap;html=1;aspect=fixed;shadow=0;fontFamily=Helvetica;fontSize=12;align=center;strokeColor=#9673a6;fillColor=#e1d5e7;sketch=0;" vertex="1" parent="1">
          <mxGeometry x="3970" y="351" width="110" height="110" as="geometry" />
        </mxCell>
        <mxCell id="sJdz69Bt23hOsFUBrbQF-8" value="Vægtet gennemsnit: slagtegrisens CO2e aftryk m/u LUC&lt;br&gt;&amp;nbsp;på CHR nummeret" style="ellipse;whiteSpace=wrap;html=1;aspect=fixed;shadow=0;fontFamily=Helvetica;fontSize=12;align=center;strokeColor=#82b366;fillColor=#d5e8d4;sketch=0;" vertex="1" parent="1">
          <mxGeometry x="4220" y="351" width="110" height="110" as="geometry" />
        </mxCell>
        <mxCell id="sJdz69Bt23hOsFUBrbQF-9" value="Vægtet gennemsnit: FRATS CO2e aftryk m/u LUC&lt;br&gt;&amp;nbsp;på CHR nummeret" style="ellipse;whiteSpace=wrap;html=1;aspect=fixed;shadow=0;fontFamily=Helvetica;fontSize=12;align=center;strokeColor=#d79b00;fillColor=#ffe6cc;sketch=0;" vertex="1" parent="1">
          <mxGeometry x="4470" y="351" width="110" height="110" as="geometry" />
        </mxCell>
        <mxCell id="sJdz69Bt23hOsFUBrbQF-10" value="Vægtet gennemsnit: årssoens CO2e aftryk m/u LUC&lt;br&gt;&amp;nbsp;på CHR nummeret" style="ellipse;whiteSpace=wrap;html=1;aspect=fixed;shadow=0;fontFamily=Helvetica;fontSize=12;align=center;strokeColor=#6c8ebf;fillColor=#dae8fc;sketch=0;" vertex="1" parent="1">
          <mxGeometry x="4750" y="347" width="110" height="110" as="geometry" />
        </mxCell>
        <mxCell id="sJdz69Bt23hOsFUBrbQF-11" value="Vægtet gennemsnit: smågrisens CO2e aftryk m/u LUC&lt;br&gt;&amp;nbsp;på CHR nummeret" style="ellipse;whiteSpace=wrap;html=1;aspect=fixed;shadow=0;fontFamily=Helvetica;fontSize=12;align=center;strokeColor=#9673a6;fillColor=#e1d5e7;sketch=0;" vertex="1" parent="1">
          <mxGeometry x="5000" y="351" width="110" height="110" as="geometry" />
        </mxCell>
        <mxCell id="sJdz69Bt23hOsFUBrbQF-12" value="Vægtet gennemsnit: slagtegrisens CO2e aftryk m/u LUC&lt;br&gt;&amp;nbsp;på CHR nummeret" style="ellipse;whiteSpace=wrap;html=1;aspect=fixed;shadow=0;fontFamily=Helvetica;fontSize=12;align=center;strokeColor=#82b366;fillColor=#d5e8d4;sketch=0;" vertex="1" parent="1">
          <mxGeometry x="5250" y="351" width="110" height="110" as="geometry" />
        </mxCell>
        <mxCell id="sJdz69Bt23hOsFUBrbQF-13" value="Vægtet gennemsnit: FRATS CO2e aftryk m/u LUC&lt;br&gt;&amp;nbsp;på CHR nummeret" style="ellipse;whiteSpace=wrap;html=1;aspect=fixed;shadow=0;fontFamily=Helvetica;fontSize=12;align=center;strokeColor=#d79b00;fillColor=#ffe6cc;sketch=0;" vertex="1" parent="1">
          <mxGeometry x="5500" y="351" width="110" height="110" as="geometry" />
        </mxCell>
        <mxCell id="sJdz69Bt23hOsFUBrbQF-15" style="edgeStyle=orthogonalEdgeStyle;rounded=0;orthogonalLoop=1;jettySize=auto;html=1;fontSize=12;endArrow=classic;endFill=1;fillColor=#dae8fc;strokeColor=#6c8ebf;entryX=0.5;entryY=0;entryDx=0;entryDy=0;" edge="1" parent="1" source="sJdz69Bt23hOsFUBrbQF-2" target="mpOMUe2CQrQYa7WsvBK0-405">
          <mxGeometry relative="1" as="geometry">
            <mxPoint x="2825" y="577" as="sourcePoint" />
            <mxPoint x="2765" y="621.5" as="targetPoint" />
          </mxGeometry>
        </mxCell>
        <mxCell id="sJdz69Bt23hOsFUBrbQF-16" style="edgeStyle=orthogonalEdgeStyle;rounded=0;orthogonalLoop=1;jettySize=auto;html=1;fontSize=12;endArrow=classic;endFill=1;fillColor=#e1d5e7;strokeColor=#9673a6;entryX=0.5;entryY=0;entryDx=0;entryDy=0;" edge="1" parent="1" source="sJdz69Bt23hOsFUBrbQF-3" target="mpOMUe2CQrQYa7WsvBK0-419">
          <mxGeometry relative="1" as="geometry">
            <mxPoint x="3075" y="577" as="sourcePoint" />
            <mxPoint x="3015" y="621.5" as="targetPoint" />
          </mxGeometry>
        </mxCell>
        <mxCell id="sJdz69Bt23hOsFUBrbQF-17" style="edgeStyle=orthogonalEdgeStyle;rounded=0;orthogonalLoop=1;jettySize=auto;html=1;fontSize=12;endArrow=classic;endFill=1;fillColor=#d5e8d4;strokeColor=#82b366;entryX=0.5;entryY=0;entryDx=0;entryDy=0;" edge="1" parent="1" source="sJdz69Bt23hOsFUBrbQF-4" target="mpOMUe2CQrQYa7WsvBK0-427">
          <mxGeometry relative="1" as="geometry">
            <mxPoint x="3325" y="577" as="sourcePoint" />
            <mxPoint x="3265" y="621.5" as="targetPoint" />
          </mxGeometry>
        </mxCell>
        <mxCell id="sJdz69Bt23hOsFUBrbQF-18" style="edgeStyle=orthogonalEdgeStyle;rounded=0;orthogonalLoop=1;jettySize=auto;html=1;fontSize=12;endArrow=classic;endFill=1;fillColor=#ffe6cc;strokeColor=#d79b00;entryX=0.5;entryY=0;entryDx=0;entryDy=0;" edge="1" parent="1" source="sJdz69Bt23hOsFUBrbQF-5" target="mpOMUe2CQrQYa7WsvBK0-435">
          <mxGeometry relative="1" as="geometry">
            <mxPoint x="3575" y="577" as="sourcePoint" />
            <mxPoint x="3515" y="621.5" as="targetPoint" />
          </mxGeometry>
        </mxCell>
        <mxCell id="sJdz69Bt23hOsFUBrbQF-19" style="edgeStyle=orthogonalEdgeStyle;rounded=0;orthogonalLoop=1;jettySize=auto;html=1;fontSize=12;endArrow=classic;endFill=1;fillColor=#dae8fc;strokeColor=#6c8ebf;entryX=0.5;entryY=0;entryDx=0;entryDy=0;" edge="1" parent="1" source="sJdz69Bt23hOsFUBrbQF-6" target="mpOMUe2CQrQYa7WsvBK0-444">
          <mxGeometry relative="1" as="geometry">
            <mxPoint x="3845" y="581" as="sourcePoint" />
            <mxPoint x="3785" y="625.5" as="targetPoint" />
          </mxGeometry>
        </mxCell>
        <mxCell id="sJdz69Bt23hOsFUBrbQF-20" style="edgeStyle=orthogonalEdgeStyle;rounded=0;orthogonalLoop=1;jettySize=auto;html=1;fontSize=12;endArrow=classic;endFill=1;fillColor=#e1d5e7;strokeColor=#9673a6;" edge="1" parent="1" source="sJdz69Bt23hOsFUBrbQF-7" target="mpOMUe2CQrQYa7WsvBK0-452">
          <mxGeometry relative="1" as="geometry">
            <mxPoint x="4095" y="581" as="sourcePoint" />
            <mxPoint x="4035" y="625.5" as="targetPoint" />
          </mxGeometry>
        </mxCell>
        <mxCell id="sJdz69Bt23hOsFUBrbQF-21" style="edgeStyle=orthogonalEdgeStyle;rounded=0;orthogonalLoop=1;jettySize=auto;html=1;fontSize=12;endArrow=classic;endFill=1;fillColor=#d5e8d4;strokeColor=#82b366;entryX=0.5;entryY=0;entryDx=0;entryDy=0;" edge="1" parent="1" source="sJdz69Bt23hOsFUBrbQF-8" target="mpOMUe2CQrQYa7WsvBK0-460">
          <mxGeometry relative="1" as="geometry">
            <mxPoint x="4345" y="581" as="sourcePoint" />
            <mxPoint x="4285" y="625.5" as="targetPoint" />
          </mxGeometry>
        </mxCell>
        <mxCell id="sJdz69Bt23hOsFUBrbQF-22" style="edgeStyle=orthogonalEdgeStyle;rounded=0;orthogonalLoop=1;jettySize=auto;html=1;fontSize=12;endArrow=classic;endFill=1;fillColor=#ffe6cc;strokeColor=#d79b00;" edge="1" parent="1" source="sJdz69Bt23hOsFUBrbQF-9" target="mpOMUe2CQrQYa7WsvBK0-468">
          <mxGeometry relative="1" as="geometry">
            <mxPoint x="4595" y="581" as="sourcePoint" />
            <mxPoint x="4535" y="625.5" as="targetPoint" />
          </mxGeometry>
        </mxCell>
        <mxCell id="sJdz69Bt23hOsFUBrbQF-23" style="edgeStyle=orthogonalEdgeStyle;rounded=0;orthogonalLoop=1;jettySize=auto;html=1;fontSize=12;endArrow=classic;endFill=1;fillColor=#dae8fc;strokeColor=#6c8ebf;" edge="1" parent="1" source="sJdz69Bt23hOsFUBrbQF-10" target="mpOMUe2CQrQYa7WsvBK0-477">
          <mxGeometry relative="1" as="geometry">
            <mxPoint x="4875" y="581" as="sourcePoint" />
            <mxPoint x="4815" y="625.5" as="targetPoint" />
          </mxGeometry>
        </mxCell>
        <mxCell id="sJdz69Bt23hOsFUBrbQF-24" style="edgeStyle=orthogonalEdgeStyle;rounded=0;orthogonalLoop=1;jettySize=auto;html=1;fontSize=12;endArrow=classic;endFill=1;fillColor=#e1d5e7;strokeColor=#9673a6;" edge="1" parent="1" source="sJdz69Bt23hOsFUBrbQF-11" target="mpOMUe2CQrQYa7WsvBK0-485">
          <mxGeometry relative="1" as="geometry">
            <mxPoint x="5125" y="581" as="sourcePoint" />
            <mxPoint x="5065" y="625.5" as="targetPoint" />
          </mxGeometry>
        </mxCell>
        <mxCell id="sJdz69Bt23hOsFUBrbQF-25" style="edgeStyle=orthogonalEdgeStyle;rounded=0;orthogonalLoop=1;jettySize=auto;html=1;fontSize=12;endArrow=classic;endFill=1;fillColor=#d5e8d4;strokeColor=#82b366;entryX=0.5;entryY=0;entryDx=0;entryDy=0;" edge="1" parent="1" source="sJdz69Bt23hOsFUBrbQF-12" target="mpOMUe2CQrQYa7WsvBK0-493">
          <mxGeometry relative="1" as="geometry">
            <mxPoint x="5375" y="581" as="sourcePoint" />
            <mxPoint x="5315" y="625.5" as="targetPoint" />
          </mxGeometry>
        </mxCell>
        <mxCell id="sJdz69Bt23hOsFUBrbQF-26" style="edgeStyle=orthogonalEdgeStyle;rounded=0;orthogonalLoop=1;jettySize=auto;html=1;fontSize=12;endArrow=classic;endFill=1;fillColor=#ffe6cc;strokeColor=#d79b00;" edge="1" parent="1" source="sJdz69Bt23hOsFUBrbQF-13" target="mpOMUe2CQrQYa7WsvBK0-501">
          <mxGeometry relative="1" as="geometry">
            <mxPoint x="5625" y="581" as="sourcePoint" />
            <mxPoint x="5565" y="625.5" as="targetPoint" />
          </mxGeometry>
        </mxCell>
      </root>
    </mxGraphModel>
  </diagram>
</mxfile>
